<svg xmlns="http://www.w3.org/2000/svg" viewBox="0 0 20.48 25"><defs><style>.cls-1{fill:#e7e7e7;}</style></defs><title>vite</title><g id="Layer_2" data-name="Layer 2"><path class="cls-1" d="M171,156l1.2-1.38a6.14,6.14,0,0,0,4.35,2c2.06,0,3.29-1,3.29-2.56s-1.14-2.13-2.63-2.78l-2.26-1c-1.47-.63-3.19-1.74-3.19-4.06s2.1-4.18,5-4.18a6.52,6.52,0,0,1,4.64,1.95l-1.07,1.29a5,5,0,0,0-3.57-1.48c-1.77,0-2.94.89-2.94,2.3s1.37,2.09,2.61,2.61l2.24,1c1.83.78,3.25,1.87,3.25,4.21,0,2.49-2.06,4.48-5.37,4.48A7.55,7.55,0,0,1,171,156Z" transform="translate(-171.01 -141.96)"/></g><g id="Layer_3" data-name="Layer 3"><path class="cls-1" d="M180.58,151.2h4.93c3.21,0,5.51,1.16,5.51,4.44s-2.3,4.66-5.51,4.66h-2.93V167h-2Zm4.64,7.47c2.46,0,3.8-1,3.8-3s-1.34-2.81-3.8-2.81h-2.64v5.84Zm-.1,1.08,1.57-1,4.8,8.25h-2.27Z" transform="translate(-171.01 -141.96)"/></g></svg>